<?xml version="1.0" encoding="UTF-8"?>
<svg version="1.1" xmlns="http://www.w3.org/2000/svg" width="1536" height="1024">
<path d="M0 0 C0.66 0 1.32 0 2 0 C2.07542342 88.79164139 1.98062649 177.58289591 1.78125 283.87890625 C1.7784857 285.33963805 1.77572147 286.80036986 1.77295732 288.26110166 C1.70526057 324.01560723 1.6350345 359.77010769 1.56369197 395.52460615 C1.51750688 418.67110653 1.47205012 441.81760823 1.42724609 464.96411133 C1.42500501 466.12170052 1.42500501 466.12170052 1.42271865 467.30267536 C1.40770374 475.05869547 1.39270148 482.81471561 1.37770845 490.57073577 C1.34721567 506.34475966 1.31663893 522.11878338 1.28601074 537.89280701 C1.28460525 538.61671077 1.28319976 539.34061454 1.28175168 540.08645478 C1.18925128 587.72430598 1.09479349 635.36215332 1 683 C0.34 683 -0.32 683 -1 683 C-3.13385985 668.67893694 -4.96185135 654.34022091 -6.60247612 639.9546833 C-7.00852559 636.39491846 -7.41828941 632.83559654 -7.82887268 629.27635193 C-8.70158696 621.70543081 -9.56984519 614.13400238 -10.4375 606.5625 C-11.44189112 597.79901186 -12.44826822 589.03575923 -13.45894051 580.27299309 C-13.85540775 576.82771666 -14.24866846 573.38208543 -14.64170837 569.93641663 C-15.9659316 558.40353042 -17.39534253 546.89156846 -18.95410156 535.38793945 C-21.02909203 520.05327993 -22.84140891 504.69307147 -24.60784936 489.32070208 C-25.04942234 485.48440713 -25.49449966 481.64851865 -25.93925476 477.81259155 C-27.06671061 468.08374504 -28.18986712 458.35440405 -29.3125 448.625 C-30.78460981 435.8668218 -32.25863977 423.10886965 -33.73828125 410.3515625 C-33.87401672 409.18079273 -33.87401672 409.18079273 -34.01249433 407.98637104 C-36.7542331 384.34511606 -39.6169216 360.72227082 -42.59957886 337.11001587 C-44.9645401 318.38197923 -47.21459108 299.64253896 -49.37329102 280.88964844 C-49.85795532 276.68096676 -50.34950005 272.47311403 -50.84232235 268.26538086 C-51.23235762 264.92683624 -51.6182473 261.58782225 -52.00293159 258.24865723 C-52.18288215 256.69209009 -52.36425328 255.13568637 -52.54719353 253.57946777 C-54.25229687 239.04829358 -54.25229687 239.04829358 -54 232 C-57.63261228 235.54114363 -60.99452773 239.23248568 -64.25 243.125 C-64.96833008 243.97868164 -64.96833008 243.97868164 -65.70117188 244.84960938 C-69.40497769 249.26171271 -73.05100398 253.71980489 -76.6875 258.1875 C-79.7243277 261.8809391 -82.81960955 265.52298486 -85.91625977 269.16625977 C-88.7954532 272.55954109 -91.63204237 275.98267786 -94.4375 279.4375 C-97.92870202 283.73098901 -101.50910132 287.93690533 -105.125 292.125 C-108.92007944 296.52286544 -112.57716165 300.97539317 -116.09765625 305.59765625 C-119.12606756 309.42203604 -122.33827384 313.08679847 -125.52734375 316.77734375 C-128.42106465 320.13406 -131.25395772 323.52015101 -134 327 C-137.7298905 331.72452797 -141.64567748 336.2727155 -145.578125 340.828125 C-148.45378616 344.16853948 -151.26820884 347.53973119 -154 351 C-157.70968216 355.69687408 -161.59744351 360.22437519 -165.50561523 364.75561523 C-169.3131564 369.17764374 -173.02503013 373.66871868 -176.703125 378.19921875 C-179.82290702 382.00344275 -183.00490829 385.75343296 -186.19555664 389.49829102 C-188.25719739 391.9218499 -190.26881111 394.35236697 -192.19921875 396.8828125 C-192.79347656 397.58148437 -193.38773438 398.28015625 -194 399 C-194.66 399 -195.32 399 -196 399 C-194.60481316 394.467266 -192.78254133 390.29384309 -190.64282227 386.07446289 C-190.30907089 385.40827438 -189.97531952 384.74208588 -189.63145447 384.05570984 C-188.53011042 381.85949337 -187.42319939 379.66613092 -186.31640625 377.47265625 C-185.53807504 375.92228049 -184.76016426 374.37169359 -183.98265076 372.82090759 C-181.93036191 368.72962323 -179.87365155 364.64057954 -177.81561279 360.55218506 C-174.16495829 353.29906306 -170.52025243 346.0429553 -166.87890625 338.78515625 C-166.29103238 337.61389977 -166.29103238 337.61389977 -165.69128227 336.41898155 C-160.09592905 325.26500653 -154.62234367 314.06343728 -149.27856445 302.78637695 C-146.05770329 295.99425501 -142.69337924 289.27601321 -139.3125 282.5625 C-138.70748047 281.35752319 -138.10266407 280.15244436 -137.49804688 278.94726562 C-136.28160735 276.52321628 -135.06457699 274.09946533 -133.84692383 271.67602539 C-133.39067123 270.76785568 -133.39067123 270.76785568 -132.92520142 269.84133911 C-132.30913561 268.61524277 -131.69290471 267.38922937 -131.07650757 266.16329956 C-125.02880378 254.12939942 -119.10185722 242.03738626 -113.1875 229.9375 C-112.17638459 227.87034485 -111.16523499 225.80320643 -110.15405273 223.73608398 C-105.27922812 213.7682326 -100.41113698 203.79712992 -95.5546875 193.8203125 C-95.12781143 192.94345291 -94.70093536 192.06659332 -94.26112366 191.16316223 C-92.26987732 187.07228919 -90.27978888 182.98085951 -88.29174805 178.88842773 C-83.5941719 169.22505633 -78.82265617 159.60148302 -74 150 C-70.72260954 143.46873477 -67.44744343 136.9363567 -64.17407227 130.40307617 C-63.18912331 128.43819278 -62.20345516 126.47366973 -61.21704102 124.50952148 C-55.37259611 112.87030117 -49.62928521 101.19209037 -44.03549194 89.43026733 C-39.4205938 79.743966 -34.63060741 70.14892741 -29.8125 60.5625 C-28.96660082 58.87574935 -28.12089785 57.18890028 -27.27539062 55.50195312 C-24.48560536 49.93705464 -21.69498308 44.37257352 -18.89959717 38.81048584 C-14.34540135 29.74780594 -9.8703743 20.65325842 -5.5 11.5 C-4.96375 10.37980469 -4.4275 9.25960937 -3.875 8.10546875 C-2.58210055 5.40423239 -1.29043512 2.70241424 0 0 Z " fill="#F37115" transform="translate(784,170)"/>
<path d="M0 0 C9.17972825 0.1438419 15.73311921 1.72505965 22.5 8.1875 C29.98623755 16.3274215 38.5 29.75397252 38.5 41.1875 C44.11 41.1875 49.72 41.1875 55.5 41.1875 C55.5 46.4675 55.5 51.7475 55.5 57.1875 C51.54 57.1875 47.58 57.1875 43.5 57.1875 C43.50222061 58.27522202 43.50444122 59.36294403 43.50672913 60.48362732 C43.52695978 70.71103511 43.54197177 80.93843886 43.55181217 91.16586208 C43.55704119 96.42446664 43.56413918 101.6830551 43.57543945 106.94165039 C43.58626766 112.01203127 43.59227669 117.08239662 43.59487724 122.15278816 C43.59673161 124.09176948 43.60035245 126.03074991 43.60573006 127.96972466 C43.6129396 130.6757176 43.61399098 133.38164556 43.61352539 136.08764648 C43.61712067 136.89756546 43.62071594 137.70748444 43.62442017 138.54194641 C43.61405216 144.07344784 43.61405216 144.07344784 42.5 145.1875 C34.91 145.1875 27.32 145.1875 19.5 145.1875 C19.5 116.1475 19.5 87.1075 19.5 57.1875 C11.58 57.1875 3.66 57.1875 -4.5 57.1875 C-3.571875 58.755 -2.64375 60.3225 -1.6875 61.9375 C4.93964209 74.22043002 6.85131626 88.71223599 3.19140625 102.328125 C1.25163804 107.5446768 -1.90461954 111.15872652 -6.5 114.1875 C-7.87817633 114.75640612 -9.27003551 115.29297205 -10.671875 115.80078125 C-11.74840332 116.19390503 -11.74840332 116.19390503 -12.84667969 116.5949707 C-13.39227539 116.79050537 -13.93787109 116.98604004 -14.5 117.1875 C-13.81035156 118.05890625 -13.12070312 118.9303125 -12.41015625 119.828125 C-7.66859273 125.83156307 -2.94370419 131.84834165 1.6875 137.9375 C2.42355469 138.90171875 3.15960937 139.8659375 3.91796875 140.859375 C5.5 143.1875 5.5 143.1875 5.5 145.1875 C-13.75063496 147.86895111 -13.75063496 147.86895111 -19.54003906 143.72851562 C-23.03219785 139.78515757 -25.27511485 135.15651532 -27.46044922 130.39697266 C-28.90093826 127.33534141 -30.67942887 124.53598804 -32.5 121.6875 C-33.42619141 120.15609375 -33.42619141 120.15609375 -34.37109375 118.59375 C-36.00126579 115.93942378 -37.72284573 113.35817336 -39.47265625 110.78125 C-40.23932617 109.63946289 -40.23932617 109.63946289 -41.02148438 108.47460938 C-42.02993509 106.97791003 -43.05037086 105.4891996 -44.08398438 104.00976562 C-47.48322345 98.93720211 -47.48322345 98.93720211 -47.5625 95.39453125 C-46.25911466 92.68713155 -44.90975128 91.5624096 -42.4375 89.875 C-41.70402344 89.36324219 -40.97054687 88.85148438 -40.21484375 88.32421875 C-39.64894531 87.94910156 -39.08304688 87.57398438 -38.5 87.1875 C-36.53965683 89.62338968 -34.58207961 92.06148776 -32.625 94.5 C-32.06941406 95.19029297 -31.51382813 95.88058594 -30.94140625 96.59179688 C-30.40644531 97.25888672 -29.87148438 97.92597656 -29.3203125 98.61328125 C-28.82805176 99.22598877 -28.33579102 99.83869629 -27.82861328 100.4699707 C-26.65106276 101.99221765 -25.56754369 103.58618446 -24.5 105.1875 C-22.025 104.6925 -22.025 104.6925 -19.5 104.1875 C-16.3691124 94.96877541 -18.12660054 87.59052214 -22.3125 78.9375 C-24.72003756 74.39452986 -27.35849433 70.25297792 -30.5 66.1875 C-27.5 63.1875 -27.5 63.1875 -16.5 58.1875 C-30.36 57.8575 -44.22 57.5275 -58.5 57.1875 C-58.5 86.2275 -58.5 115.2675 -58.5 145.1875 C-66.42 145.1875 -74.34 145.1875 -82.5 145.1875 C-82.83 132.9775 -83.16 120.7675 -83.5 108.1875 C-85.81 109.1775 -88.12 110.1675 -90.5 111.1875 C-97.53863415 112.87065164 -104.14374129 112.56046164 -111.125 110.875 C-114.91806962 110.05393681 -114.91806962 110.05393681 -118.5078125 111.1328125 C-120.25337755 112.44583394 -120.25337755 112.44583394 -121.671875 113.92578125 C-124.4204723 115.82278323 -127.23354569 115.85853244 -130.5 116.1875 C-129.06694736 118.08683875 -127.62970009 119.98261482 -126.1875 121.875 C-125.52548584 122.74390869 -125.52548584 122.74390869 -124.85009766 123.63037109 C-121.05159872 128.56855285 -117.05302279 133.31156664 -112.9050293 137.9597168 C-109.5 141.86340343 -109.5 141.86340343 -109.5 145.1875 C-128.66527332 148.01409395 -128.66527332 148.01409395 -134.45947266 143.74316406 C-137.91720891 139.61985417 -140.00778578 134.73269826 -142.20166016 129.85742188 C-144.4698111 125.19316864 -147.41735531 120.98004758 -150.3125 116.6875 C-152.39653079 113.53442565 -154.45507198 110.36605055 -156.5 107.1875 C-157.07927246 106.30449219 -157.65854492 105.42148437 -158.25537109 104.51171875 C-158.81434082 103.63128906 -159.37331055 102.75085938 -159.94921875 101.84375 C-160.46186279 101.04775391 -160.97450684 100.25175781 -161.50268555 99.43164062 C-162.5 97.1875 -162.5 97.1875 -162.33520508 95.07226562 C-160.87745183 91.78262662 -158.40234689 90.17930669 -155.5 88.1875 C-152.86160736 88.36913776 -151.80250175 88.87982363 -149.94433594 90.76977539 C-149.46254883 91.43485107 -148.98076172 92.09992676 -148.484375 92.78515625 C-147.95585938 93.50380859 -147.42734375 94.22246094 -146.8828125 94.96289062 C-146.34398437 95.71763672 -145.80515625 96.47238281 -145.25 97.25 C-144.69570313 98.00861328 -144.14140625 98.76722656 -143.5703125 99.54882812 C-142.20392695 101.42171866 -140.84777038 103.30119202 -139.5 105.1875 C-135.86269791 104.77266669 -135.86269791 104.77266669 -133.1875 102.5625 C-130.71552387 94.0229461 -134.04053737 84.93304278 -137.99609375 77.30078125 C-139.44255188 74.88761295 -140.95009295 72.53509254 -142.5 70.1875 C-143.49 68.5375 -144.48 66.8875 -145.5 65.1875 C-140.88 62.8775 -136.26 60.5675 -131.5 58.1875 C-150.31 57.6925 -150.31 57.6925 -169.5 57.1875 C-169.5 68.4075 -169.5 79.6275 -169.5 91.1875 C-173.18630239 90.2659244 -174.87386617 89.41570045 -177.9375 87.375 C-189.5067984 80.28029789 -206.16212696 75.94401584 -219.66796875 78.875 C-227.2616718 80.97222524 -234.48563814 83.42978926 -238.87109375 90.3515625 C-239.84133867 92.25176535 -240.68422343 94.21603997 -241.5 96.1875 C-240.42621094 95.91035156 -239.35242188 95.63320313 -238.24609375 95.34765625 C-236.80994471 94.98157904 -235.37374401 94.61570442 -233.9375 94.25 C-233.23302734 94.06759766 -232.52855469 93.88519531 -231.80273438 93.69726562 C-215.48041481 89.56027219 -198.94034849 89.60670555 -183.87890625 97.75390625 C-176.14982628 102.41166052 -169.70180863 107.46408178 -166.5 116.1875 C-165.60650969 122.07483923 -165.57947818 127.162352 -168.0625 132.625 C-176.30727306 141.29258193 -185.40511624 145.06993351 -196.5 149.1875 C-196.08113525 149.71706299 -195.66227051 150.24662598 -195.23071289 150.79223633 C-193.33696837 153.19143523 -191.44967947 155.59563432 -189.5625 158 C-188.90314453 158.83337891 -188.24378906 159.66675781 -187.56445312 160.52539062 C-186.93603516 161.32783203 -186.30761719 162.13027344 -185.66015625 162.95703125 C-185.07886963 163.69542236 -184.49758301 164.43381348 -183.89868164 165.19458008 C-182.5 167.1875 -182.5 167.1875 -181.5 170.1875 C-189.38368022 171.51375382 -197.77039897 172.70301276 -205.5 170.1875 C-209.67050899 166.61084112 -212.00296034 162.01824487 -214.60058594 157.24853516 C-219.15539631 149.00775914 -223.35152636 146.17604232 -231.90234375 142.75 C-236.84586896 140.60297494 -240.33379383 137.52780087 -243.5 133.1875 C-243.83 132.1975 -244.16 131.2075 -244.5 130.1875 C-238.12626924 125.00982736 -231.4929968 120.48786626 -224.5 116.1875 C-223.02433596 118.95672485 -222.03909118 121.61047171 -221.1875 124.625 C-219.79115094 128.89123229 -218.09267497 131.36468395 -214.5 134.1875 C-208.6088237 137.02287907 -201.45968236 137.57338883 -195.234375 135.39453125 C-192.14124233 133.69850682 -190.46461695 132.13442542 -188.5 129.1875 C-187.91597867 126.77332128 -187.91597867 126.77332128 -188.5 124.1875 C-193.62405889 117.41051889 -200.99362461 115.25350946 -209.0625 113.875 C-220.88903705 112.46040343 -231.72152505 113.40741134 -243.0234375 117.34765625 C-245.5 118.1875 -245.5 118.1875 -247.5 118.1875 C-248.32011312 116.62898245 -249.13076213 115.06548284 -249.9375 113.5 C-250.38996094 112.62988281 -250.84242188 111.75976562 -251.30859375 110.86328125 C-254.47530661 103.75115565 -254.59207682 95.0668819 -252.4375 87.625 C-248.00392104 76.20393714 -240.56616309 69.81189595 -229.5703125 64.87109375 C-218.32020957 60.76323174 -204.89035696 60.39071435 -193.5 64.1875 C-193.5 61.8775 -193.5 59.5675 -193.5 57.1875 C-216.27 57.1875 -239.04 57.1875 -262.5 57.1875 C-262.5 51.9075 -262.5 46.6275 -262.5 41.1875 C-121.425 40.6925 -121.425 40.6925 22.5 40.1875 C18.0982335 30.21774757 18.0982335 30.21774757 11.5 23.1875 C10.79875 22.61 10.0975 22.0325 9.375 21.4375 C2.68071799 18.5269426 -5.3021078 19.05169071 -12.5 19.1875 C-7.32522721 0.05652181 -7.32522721 0.05652181 0 0 Z M-120.5 57.1875 C-118.52 60.4875 -116.54 63.7875 -114.5 67.1875 C-110.30598327 77.81234239 -111.2097674 88.93987041 -111.5 100.1875 C-106.04338981 99.13791753 -101.22672663 97.88070385 -96.25 95.3125 C-95.27546875 94.82007813 -94.3009375 94.32765625 -93.296875 93.8203125 C-88.40878152 90.96664899 -85.04773581 88.29792365 -82.5 83.1875 C-82.09060585 80.19532038 -82.09060585 80.19532038 -82.20703125 77.01171875 C-82.21452393 75.96846436 -82.2220166 74.92520996 -82.22973633 73.8503418 C-82.25704834 72.538479 -82.28436035 71.22661621 -82.3125 69.875 C-82.374375 65.688125 -82.43625 61.50125 -82.5 57.1875 C-95.04 57.1875 -107.58 57.1875 -120.5 57.1875 Z " fill="#F37115" transform="translate(675.5,540.8125)"/>
<path d="M0 0 C1.46666978 0.00056958 1.46666978 0.00056958 2.96296924 0.00115067 C4.64843588 -0.00183591 4.64843588 -0.00183591 6.36795235 -0.00488281 C7.61792486 -0.00196997 8.86789737 0.00094287 10.15574783 0.00394398 C11.47150612 0.00308955 12.7872644 0.00223513 14.14289415 0.00135481 C17.81195243 -0.00089263 21.4809818 0.00313453 25.15003639 0.00813287 C29.10029432 0.01243363 33.05055048 0.01099122 37.00081009 0.0102306 C43.85052578 0.00970513 50.70023199 0.01285437 57.54994529 0.01846844 C67.45359678 0.02658028 77.35724366 0.02919833 87.26089811 0.03045643 C103.32720458 0.03264745 119.393506 0.03930888 135.45980972 0.04875904 C151.07081207 0.05793187 166.68181304 0.06501334 182.29281753 0.06926686 C183.25436739 0.06952958 184.21591724 0.0697923 185.20660497 0.07006299 C190.03020527 0.07136798 194.85380558 0.0726317 199.67740589 0.07387489 C239.72198354 0.08424906 279.76655539 0.10194283 319.81112808 0.1241985 C319.81112808 5.7341985 319.81112808 11.3441985 319.81112808 17.1241985 C254.47112808 17.4541985 189.13112808 17.7841985 121.81112808 18.1241985 C126.10112808 20.4341985 130.39112808 22.7441985 134.81112808 25.1241985 C132.84690718 29.0526403 131.11802048 30.99672485 127.99862808 33.9991985 C124.35577578 37.56297296 120.9668923 41.12689715 117.81112808 45.1241985 C112.92539433 43.65469098 108.6244825 41.59358531 104.12362808 39.2491985 C91.55558368 32.69957179 91.55558368 32.69957179 77.81112808 30.1241985 C71.04710957 32.51149915 68.32405621 37.20664632 64.81112808 43.1241985 C65.39378433 43.13878102 65.97644058 43.15336354 66.57675308 43.16838795 C86.88503293 43.73317207 107.01566046 44.30044414 122.75253433 58.74529225 C125.58376273 62.01705334 127.54927176 65.17304961 128.13144058 69.51091725 C127.32144642 79.05264851 121.92564108 86.93518535 114.88713211 93.25141102 C113.40229315 94.59090158 111.95900158 95.97702517 110.54554886 97.39163929 C104.2612257 103.23760034 99.83395316 105.14864027 91.26445144 105.14386708 C89.98692505 105.09741551 88.70939865 105.05096394 87.39315933 105.00310475 C86.04128947 104.98627282 84.68936387 104.97348335 83.33741897 104.96451527 C79.81618934 104.93050462 76.29841826 104.842435 72.77853531 104.74217945 C69.17203686 104.64932535 65.56496721 104.60884231 61.95761245 104.56365162 C54.90738789 104.46775979 47.8594863 104.31461168 40.81112808 104.1241985 C40.81112808 98.48313678 45.55333356 94.67777841 49.27902359 90.77288014 C57.46127578 83.24435901 65.67368123 83.34646989 76.34628433 83.7179485 C78.66800278 83.85157258 80.98961747 83.98701097 83.31112808 84.1241985 C85.69500121 84.204623 88.07913787 84.27759742 90.46347183 84.3429485 C96.25186348 84.5176133 102.03023646 84.78380552 107.81112808 85.1241985 C101.45236855 75.44111266 93.57500128 69.04859387 82.02597183 66.51262623 C72.70248277 65.08231825 63.40735427 64.48742002 53.99862808 63.9991985 C52.41981994 63.91254174 50.84104349 63.82530562 49.26229995 63.73747975 C45.44557388 63.52639275 41.62850896 63.32307704 37.81112808 63.1241985 C43.23491581 46.00197642 50.20275523 31.87431067 65.81112808 22.1241985 C67.19957737 21.40531693 68.59531875 20.70038495 69.99716324 20.00798756 C71.070625 19.47627949 71.070625 19.47627949 72.16577286 18.93382984 C72.70874008 18.6666515 73.2517073 18.39947315 73.81112808 18.1241985 C72.38625831 18.1087373 72.38625831 18.1087373 70.9326033 18.09296376 C62.00014944 17.99539755 53.06776786 17.89267984 44.13543171 17.78485924 C39.5427363 17.72958884 34.95003458 17.67616241 30.35727066 17.62688404 C25.92873477 17.57930102 21.50027879 17.52696068 17.07183784 17.47125775 C15.37849477 17.45080662 13.68512977 17.4320982 11.99174827 17.41512448 C9.62815645 17.39114122 7.26471704 17.36107884 4.90121597 17.32952076 C4.19415512 17.3237653 3.48709427 17.31800984 2.75860733 17.31207997 C-2.07481976 17.23825066 -2.07481976 17.23825066 -3.18887192 16.1241985 C-3.28862224 13.61283745 -3.32769375 11.13516435 -3.31387192 8.6241985 C-3.31773911 7.92165943 -3.3216063 7.21912037 -3.32559067 6.49529225 C-3.31343791 0.18800735 -3.31343791 0.18800735 0 0 Z " fill="#0D87D2" transform="translate(803.1888719201088,581.8758015036583)"/>
<path d="M0 0 C8.63201819 -0.09281853 17.26386369 -0.16382466 25.89627266 -0.20724869 C29.90498652 -0.2280937 33.91335811 -0.25635406 37.921875 -0.30175781 C41.79279809 -0.34532699 45.66339265 -0.36916032 49.53454208 -0.37950897 C51.00891158 -0.3868806 52.48326378 -0.40127592 53.95749283 -0.42292023 C56.02820459 -0.45210357 58.0975716 -0.4559501 60.16845703 -0.45410156 C61.93384323 -0.46742523 61.93384323 -0.46742523 63.7348938 -0.48101807 C68.59134194 0.23443777 71.73809327 2.49735215 74.86328125 6.21875 C75.34152344 6.9715625 75.81976562 7.724375 76.3125 8.5 C77.04919922 9.62921875 77.04919922 9.62921875 77.80078125 10.78125 C79.96459599 14.78465968 80.12592917 18.34074499 80.12939453 22.85424805 C80.13254669 24.0319426 80.13569885 25.20963715 80.13894653 26.42301941 C80.13591019 28.32317558 80.13591019 28.32317558 80.1328125 30.26171875 C80.13376923 31.56325394 80.13472595 32.86478912 80.13571167 34.20576477 C80.13718362 36.95530386 80.1350492 39.7048104 80.13037109 42.4543457 C80.12465722 45.98531764 80.12796641 49.51621384 80.13394356 53.04718304 C80.13841451 56.41036778 80.13529016 59.77353185 80.1328125 63.13671875 C80.13483673 64.40956223 80.13686096 65.6824057 80.13894653 66.99382019 C80.13421829 68.74617729 80.13421829 68.74617729 80.12939453 70.53393555 C80.12859894 71.56777878 80.12780334 72.60162201 80.12698364 73.66679382 C80 76 80 76 79 77 C77.04849095 77.10980034 75.09298633 77.14911616 73.13842773 77.16113281 C71.25528114 77.17554413 71.25528114 77.17554413 69.33409119 77.19024658 C67.95059388 77.19509681 66.56709447 77.19937509 65.18359375 77.203125 C63.76929217 77.20887711 62.35499062 77.21463484 60.94068909 77.22039795 C57.96721025 77.23092305 54.99375853 77.23675443 52.02026367 77.24023438 C48.2263269 77.24569342 44.4327537 77.26965871 40.63893032 77.29820633 C37.71251927 77.31692491 34.7861937 77.32204339 31.85972786 77.32357025 C30.46240331 77.3265814 29.06507972 77.33455753 27.66781425 77.34775543 C10.59453106 77.49738157 10.59453106 77.49738157 4.6875 71.75 C-0.27911998 63.65624892 -0.40528892 57.13888935 -0.29296875 47.75390625 C-0.28736543 46.37386031 -0.28309881 44.99380835 -0.28010559 43.61375427 C-0.26871456 40.00183298 -0.23929805 36.39028025 -0.20599365 32.77850342 C-0.17516793 29.08480819 -0.16157369 25.39105273 -0.14648438 21.69726562 C-0.11442181 14.4646767 -0.06329639 7.23239022 0 0 Z M21 21 C21 32.22 21 43.44 21 55 C33.21 55 45.42 55 58 55 C58.04125 49.76125 58.0825 44.5225 58.125 39.125 C58.14320801 37.47258301 58.16141602 35.82016602 58.18017578 34.11767578 C58.1851709 32.8232959 58.19016602 31.52891602 58.1953125 30.1953125 C58.2106604 29.17425415 58.2106604 29.17425415 58.22631836 28.13256836 C58.22695569 26.42004993 58.12255506 24.70812764 58 23 C56.06409791 20.62476405 56.06409791 20.62476405 52.56005859 20.77294922 C51.08948021 20.77326631 49.61887858 20.78459013 48.1484375 20.8046875 C46.98738998 20.80893234 46.98738998 20.80893234 45.80288696 20.81326294 C43.32676843 20.82447246 40.8510095 20.84957797 38.375 20.875 C36.69792188 20.88502882 35.02083811 20.89415484 33.34375 20.90234375 C29.22891613 20.92271421 25.11486134 20.96186019 21 21 Z " fill="#0D87D2" transform="translate(1035,609)"/>
<path d="M0 0 C7.59 0 15.18 0 23 0 C23.495 7.92 23.495 7.92 24 16 C25.03125 15.154375 26.0625 14.30875 27.125 13.4375 C35.3925807 7.2034176 45.39467481 1.88313515 55.8125 1.75 C57.01519531 1.72421875 58.21789062 1.6984375 59.45703125 1.671875 C64.77824846 2.16468894 68.72627022 4.10576964 72.1875 8.1875 C76.80331902 13.97847505 78.78930809 20.12303727 78.5390625 27.55078125 C77.5192028 32.18449161 74.41625833 34.89898962 71 38 C70.30519531 38.64195312 69.61039063 39.28390625 68.89453125 39.9453125 C65.71113075 42.80021952 62.44001958 45.46002989 59 48 C58.82984375 46.83082031 58.6596875 45.66164063 58.484375 44.45703125 C58.24039952 42.90872533 57.99556229 41.36055504 57.75 39.8125 C57.64042969 39.04357422 57.53085937 38.27464844 57.41796875 37.48242188 C56.62866776 32.64276054 55.69091201 29.48091185 52 26 C47.63407801 23.22827359 44.32038644 22.6126094 39.1875 22.6875 C38.04667969 22.69136719 36.90585937 22.69523438 35.73046875 22.69921875 C31.07728852 22.98817882 31.07728852 22.98817882 23 25 C23 42.16 23 59.32 23 77 C15.41 77 7.82 77 0 77 C0 51.59 0 26.18 0 0 Z " fill="#0D87D2" transform="translate(947,609)"/>
<path d="M0 0 C7.31207101 0.50017993 14.25352641 1.53606938 21.375 3.25 C22.30675049 3.46817383 23.23850098 3.68634766 24.19848633 3.91113281 C27.13401806 4.60045394 30.06694976 5.30020485 33 6 C34.99594003 6.46940412 36.99203271 6.93815963 38.98828125 7.40625 C42.62198547 8.26188728 46.25558351 9.11789438 49.88671875 9.984375 C50.61076904 10.15678711 51.33481934 10.32919922 52.08081055 10.50683594 C53.74049567 10.93331653 55.37433202 11.45811067 57 12 C55.03735129 18.25682526 52.24643384 24.0433165 49.40478516 29.93334961 C48.49573633 31.82135522 47.59727319 33.71416651 46.69921875 35.60742188 C46.12816406 36.79529297 45.55710937 37.98316406 44.96875 39.20703125 C44.44732422 40.2947583 43.92589844 41.38248535 43.38867188 42.50317383 C42 45 42 45 40 46 C38.1631012 45.76080322 38.1631012 45.76080322 35.90844727 45.24316406 C35.06318985 45.05256409 34.21793243 44.86196411 33.34706116 44.66558838 C32.42944504 44.45110046 31.51182892 44.23661255 30.56640625 44.015625 C29.61869858 43.79936462 28.67099091 43.58310425 27.69456482 43.36029053 C25.68048251 42.89934424 23.66715914 42.43507135 21.65454102 41.96777344 C18.60785545 41.26052862 15.55910148 40.56290615 12.50976562 39.8671875 C10.54934777 39.41723877 8.5890573 38.96673459 6.62890625 38.515625 C5.27980919 38.20603851 5.27980919 38.20603851 3.90345764 37.89019775 C-2.44223029 36.41416888 -8.72535925 34.75285031 -15 33 C-13.63864937 28.64023152 -11.95568515 24.61464589 -9.9609375 20.5078125 C-9.67521881 19.91700897 -9.38950012 19.32620544 -9.09512329 18.71749878 C-8.191824 16.85165681 -7.28350839 14.9883102 -6.375 13.125 C-5.75747773 11.8517248 -5.14028701 10.57828876 -4.5234375 9.3046875 C-3.01945183 6.20125692 -1.51096073 3.10004175 0 0 Z " fill="#0D87D2" transform="translate(817,329)"/>
<path d="M0 0 C9.20780849 0.60169838 17.94127226 2.7088372 26.875 4.875 C28.36574615 5.23105237 29.85663097 5.5865246 31.34765625 5.94140625 C39.5788306 7.90601223 47.79550723 9.92659814 56 12 C55.36510724 16.19301875 53.94072365 19.55264394 52.09375 23.359375 C51.66660706 24.2441452 51.66660706 24.2441452 51.23083496 25.14678955 C50.63167254 26.38513242 50.02977652 27.62215601 49.42529297 28.85791016 C48.49744567 30.75522324 47.57812792 32.65648588 46.66015625 34.55859375 C42.15917685 43.84082315 42.15917685 43.84082315 41 45 C34.03169347 44.84719211 27.22806764 43.32250836 20.46875 41.75 C19.51101685 41.53182617 18.55328369 41.31365234 17.56652832 41.08886719 C15.56257582 40.63112027 13.55928351 40.17047414 11.55664062 39.70703125 C8.48198085 38.99583199 5.40527667 38.29408077 2.328125 37.59375 C0.37487504 37.14637856 -1.5782545 36.69848097 -3.53125 36.25 C-4.45200317 36.03956055 -5.37275635 35.82912109 -6.32141113 35.61230469 C-7.16989624 35.41540039 -8.01838135 35.21849609 -8.89257812 35.015625 C-9.63963013 34.84321289 -10.38668213 34.67080078 -11.15637207 34.49316406 C-13 34 -13 34 -15 33 C-12.71340066 25.36997903 -9.43606642 18.51817926 -5.8125 11.4375 C-5.25369141 10.33341797 -4.69488281 9.22933594 -4.11914062 8.09179688 C-2.75155696 5.3916958 -1.37842166 2.69457967 0 0 Z " fill="#0D87D2" transform="translate(640,288)"/>
<path d="M0 0 C11.72956833 1.65368713 23.21725078 4.46828941 34.75 7.125 C36.81503017 7.59797944 38.88013377 8.07063838 40.9453125 8.54296875 C45.9643963 9.69161761 50.98246513 10.8446047 56 12 C55.36800732 16.33111367 53.76228432 19.94634836 51.83984375 23.83203125 C51.53051407 24.46864182 51.22118439 25.10525238 50.90248108 25.76115417 C49.9195358 27.78094704 48.92866182 29.79672856 47.9375 31.8125 C47.26704968 33.18659124 46.5971221 34.56093767 45.92773438 35.93554688 C44.2911971 39.29333989 42.64752914 42.64758401 41 46 C34.88005712 45.34463952 29.01121317 44.19496521 23.0234375 42.78515625 C21.63011703 42.46145302 21.63011703 42.46145302 20.20864868 42.13121033 C18.25680441 41.67676046 16.30542438 41.22031248 14.35449219 40.76196289 C11.37815834 40.06324145 8.40016349 39.37197727 5.421875 38.68164062 C3.51812612 38.23742054 1.61447678 37.79277361 -0.2890625 37.34765625 C-1.17357086 37.14237808 -2.05807922 36.93709991 -2.96939087 36.7256012 C-7.39826635 35.68113475 -11.70715008 34.53065808 -16 33 C-10.79930893 21.93099757 -5.53356791 10.90700042 0 0 Z " fill="#0D87D2" transform="translate(884,344)"/>
<path d="M0 0 C10.38178395 1.71667294 20.58659399 4.02631452 30.8125 6.5 C32.652677 6.94484741 32.652677 6.94484741 34.5300293 7.39868164 C41.71909928 9.15406752 48.87289942 11.00773228 56 13 C54.07556292 19.15071952 51.32915746 24.74911599 48.4597168 30.50610352 C47.55867061 32.32020985 46.67283583 34.14126532 45.78710938 35.96289062 C45.21927734 37.10564453 44.65144531 38.24839844 44.06640625 39.42578125 C43.55021729 40.47161377 43.03402832 41.51744629 42.50219727 42.5949707 C41 45 41 45 38 46 C35.71653748 45.7093811 35.71653748 45.7093811 33.00952148 45.11962891 C31.99514511 44.9025528 30.98076874 44.68547668 29.93565369 44.46182251 C28.29494652 44.0978688 28.29494652 44.0978688 26.62109375 43.7265625 C25.49808365 43.48336273 24.37507355 43.24016296 23.21803284 42.98959351 C20.84255163 42.47362733 18.46788892 41.95388068 16.09399414 41.43066406 C12.45047018 40.62785782 8.80463494 39.8363569 5.15820312 39.046875 C2.85402282 38.54493073 0.54998145 38.04234812 -1.75390625 37.5390625 C-3.39764977 37.18118149 -3.39764977 37.18118149 -5.07460022 36.81607056 C-6.08582443 36.59269012 -7.09704865 36.36930969 -8.13891602 36.13916016 C-9.0314357 35.94295074 -9.92395538 35.74674133 -10.84352112 35.54458618 C-13 35 -13 35 -15 34 C-14.37572037 30.00944407 -13.11251645 26.80864066 -11.34765625 23.18359375 C-10.81849609 22.08982422 -10.28933594 20.99605469 -9.74414062 19.86914062 C-8.91172852 18.17047852 -8.91172852 18.17047852 -8.0625 16.4375 C-7.51142578 15.30119141 -6.96035156 14.16488281 -6.39257812 12.99414062 C-4.28402816 8.65150126 -2.16635308 4.31413558 0 0 Z " fill="#0D87D2" transform="translate(574,272)"/>
<path d="M0 0 C7.26 0 14.52 0 22 0 C23.65888739 1.65888739 23.12562525 3.65684782 23.13552856 5.87290955 C23.13350433 6.56904861 23.1314801 7.26518768 23.12939453 7.98242188 C23.13114685 8.7124794 23.13289917 9.44253693 23.13470459 10.19471741 C23.13912299 12.61941878 23.13618517 15.04404782 23.1328125 17.46875 C23.13348554 19.14644383 23.13445557 20.82413756 23.13571167 22.50183105 C23.13718863 26.02255174 23.13503416 29.5432471 23.13037109 33.06396484 C23.1246738 37.58710496 23.12795282 42.11018574 23.13394356 46.63332367 C23.13754923 50.09902395 23.13641056 53.56471007 23.13381577 57.03041077 C23.13314651 58.69865425 23.13397486 60.36689899 23.13629532 62.03514099 C23.13882195 64.36265494 23.13498113 66.69007148 23.12939453 69.01757812 C23.13141876 69.71371719 23.13344299 70.40985626 23.13552856 71.12709045 C23.11426274 75.88573726 23.11426274 75.88573726 22 77 C14.74 77 7.48 77 0 77 C0 51.59 0 26.18 0 0 Z " fill="#0D88D2" transform="translate(813,609)"/>
<path d="M0 0 C3.9604297 2.09230249 6.61301326 4.22856095 9 8 C9.90790582 12.20170366 9.87343698 16.24992664 7.93359375 20.13671875 C5.00000047 23.94959067 1.86176738 26.21040071 -2.9140625 27.04296875 C-6.89858159 26.96089064 -9.86522369 25.36495292 -13 23 C-15.90304607 19.73407317 -16.89568385 17.83452922 -17.4375 13.5 C-16.77134963 8.17079706 -15.35070586 5.19364703 -11.3125 1.625 C-7.30062188 -0.34309115 -4.38290408 -0.87483115 0 0 Z " fill="#0D87D2" transform="translate(828,551)"/>
</svg>
